<svg xmlns="http://www.w3.org/2000/svg" width="1280" height="640" viewBox="0 0 1280 640">
  <rect width="1280" height="640" fill="#fcfcfd"/>

  <text x="64" y="76" font-family="Inter, system-ui, sans-serif" font-size="11"
        fill="#5a5a66" letter-spacing="2" font-weight="600">AUTO TASK / 1週間のタイムライン</text>
  <text x="64" y="116" font-family="Inter, system-ui, sans-serif" font-size="28"
        font-weight="700" fill="#1a1a1f" letter-spacing="-0.01em">自動タスクのタイムライン例</text>
  <line x1="64" y1="148" x2="1216" y2="148" stroke="#e5e5ea"/>

  <line x1="180" y1="220" x2="180" y2="540" stroke="#e5e5ea"/>
  <g font-family="Inter, system-ui, sans-serif" font-size="11" fill="#5a5a66" letter-spacing="1.2">
    <text x="64"  y="248" font-weight="600">月</text>
    <text x="64"  y="298" font-weight="600">火</text>
    <text x="64"  y="348" font-weight="600">水</text>
    <text x="64"  y="398" font-weight="600">木</text>
    <text x="64"  y="448" font-weight="600">金</text>
    <text x="64"  y="498" font-weight="600">土</text>
    <text x="64"  y="538" font-weight="600">日</text>
  </g>

  <g font-family="Inter, system-ui, sans-serif" font-size="11" fill="#5a5a66" letter-spacing="1.2" text-anchor="middle">
    <text x="280" y="200">07:30</text>
    <text x="480" y="200">10:00</text>
    <text x="680" y="200">13:00</text>
    <text x="880" y="200">17:00</text>
    <text x="1080" y="200">21:00</text>
  </g>

  <g stroke="#e5e5ea">
    <line x1="280" y1="220" x2="280" y2="540"/>
    <line x1="480" y1="220" x2="480" y2="540"/>
    <line x1="680" y1="220" x2="680" y2="540"/>
    <line x1="880" y1="220" x2="880" y2="540"/>
    <line x1="1080" y1="220" x2="1080" y2="540"/>
  </g>

  <g font-family="Inter, system-ui, sans-serif">
    <rect x="220" y="232" width="120" height="32" rx="6" fill="#ffffff" stroke="#5b6cff" stroke-width="1.2"/>
    <text x="280" y="252" font-size="11" fill="#1a1a1f" text-anchor="middle">朝のブリーフィング</text>
    <rect x="420" y="232" width="120" height="32" rx="6" fill="#ffffff" stroke="#e5e5ea"/>
    <text x="480" y="252" font-size="11" fill="#1a1a1f" text-anchor="middle">週次レポート</text>
    <rect x="820" y="232" width="120" height="32" rx="6" fill="#ffffff" stroke="#e5e5ea"/>
    <text x="880" y="252" font-size="11" fill="#1a1a1f" text-anchor="middle">X 自動投稿</text>

    <rect x="220" y="282" width="120" height="32" rx="6" fill="#ffffff" stroke="#5b6cff" stroke-width="1.2"/>
    <text x="280" y="302" font-size="11" fill="#1a1a1f" text-anchor="middle">朝のブリーフィング</text>
    <rect x="620" y="282" width="120" height="32" rx="6" fill="#ffffff" stroke="#e5e5ea"/>
    <text x="680" y="302" font-size="11" fill="#1a1a1f" text-anchor="middle">競合分析</text>
    <rect x="820" y="282" width="120" height="32" rx="6" fill="#ffffff" stroke="#e5e5ea"/>
    <text x="880" y="302" font-size="11" fill="#1a1a1f" text-anchor="middle">X 自動投稿</text>

    <rect x="220" y="332" width="120" height="32" rx="6" fill="#ffffff" stroke="#5b6cff" stroke-width="1.2"/>
    <text x="280" y="352" font-size="11" fill="#1a1a1f" text-anchor="middle">朝のブリーフィング</text>
    <rect x="820" y="332" width="120" height="32" rx="6" fill="#ffffff" stroke="#e5e5ea"/>
    <text x="880" y="352" font-size="11" fill="#1a1a1f" text-anchor="middle">X 自動投稿</text>

    <rect x="220" y="382" width="120" height="32" rx="6" fill="#ffffff" stroke="#5b6cff" stroke-width="1.2"/>
    <text x="280" y="402" font-size="11" fill="#1a1a1f" text-anchor="middle">朝のブリーフィング</text>
    <rect x="620" y="382" width="120" height="32" rx="6" fill="#ffffff" stroke="#e5e5ea"/>
    <text x="680" y="402" font-size="11" fill="#1a1a1f" text-anchor="middle">競合分析</text>
    <rect x="820" y="382" width="120" height="32" rx="6" fill="#ffffff" stroke="#e5e5ea"/>
    <text x="880" y="402" font-size="11" fill="#1a1a1f" text-anchor="middle">X 自動投稿</text>

    <rect x="220" y="432" width="120" height="32" rx="6" fill="#ffffff" stroke="#5b6cff" stroke-width="1.2"/>
    <text x="280" y="452" font-size="11" fill="#1a1a1f" text-anchor="middle">朝のブリーフィング</text>
    <rect x="820" y="432" width="120" height="32" rx="6" fill="#ffffff" stroke="#e5e5ea"/>
    <text x="880" y="452" font-size="11" fill="#1a1a1f" text-anchor="middle">週次サマリ</text>

    <rect x="1020" y="482" width="120" height="32" rx="6" fill="#ffffff" stroke="#e5e5ea" stroke-dasharray="3 3"/>
    <text x="1080" y="502" font-size="11" fill="#5a5a66" text-anchor="middle">休止可</text>

    <rect x="1020" y="522" width="120" height="32" rx="6" fill="#ffffff" stroke="#e5e5ea" stroke-dasharray="3 3"/>
    <text x="1080" y="542" font-size="11" fill="#5a5a66" text-anchor="middle">休止可</text>
  </g>

  <line x1="64" y1="582" x2="1216" y2="582" stroke="#e5e5ea"/>
  <text x="64" y="610" font-family="Inter, system-ui, sans-serif" font-size="12"
        fill="#5a5a66">通知先: Web ダッシュボード / LINE / Slack / Telegram から選択（複数可）</text>
</svg>
